<mxfile host="app.diagrams.net" modified="2024-03-18T06:24:21.914Z" agent="Mozilla/5.0 (Windows NT 10.0; Win64; x64) AppleWebKit/537.36 (KHTML, like Gecko) Chrome/122.0.0.0 Safari/537.36 Edg/122.0.0.0" etag="45R2K_OivzUIywHRDk30" version="24.0.2" type="github">
  <diagram name="第 1 页" id="-AAy8CTYmC70umkfMkic">
    <mxGraphModel dx="1386" dy="759" grid="1" gridSize="10" guides="1" tooltips="1" connect="1" arrows="1" fold="1" page="1" pageScale="1" pageWidth="827" pageHeight="1169" math="0" shadow="0">
      <root>
        <mxCell id="0" />
        <mxCell id="1" parent="0" />
        <mxCell id="QyY-bZJVNmkqVkuCmmXx-5" value="" style="edgeStyle=orthogonalEdgeStyle;rounded=0;orthogonalLoop=1;jettySize=auto;html=1;" edge="1" parent="1" source="QyY-bZJVNmkqVkuCmmXx-1" target="QyY-bZJVNmkqVkuCmmXx-2">
          <mxGeometry relative="1" as="geometry" />
        </mxCell>
        <mxCell id="QyY-bZJVNmkqVkuCmmXx-1" value="recovery_main" style="rounded=1;whiteSpace=wrap;html=1;" vertex="1" parent="1">
          <mxGeometry x="294" y="130" width="120" height="60" as="geometry" />
        </mxCell>
        <mxCell id="QyY-bZJVNmkqVkuCmmXx-6" value="" style="edgeStyle=orthogonalEdgeStyle;rounded=0;orthogonalLoop=1;jettySize=auto;html=1;" edge="1" parent="1" source="QyY-bZJVNmkqVkuCmmXx-2" target="QyY-bZJVNmkqVkuCmmXx-3">
          <mxGeometry relative="1" as="geometry" />
        </mxCell>
        <mxCell id="QyY-bZJVNmkqVkuCmmXx-2" value="screen_ui" style="rounded=1;whiteSpace=wrap;html=1;" vertex="1" parent="1">
          <mxGeometry x="294" y="240" width="120" height="60" as="geometry" />
        </mxCell>
        <mxCell id="QyY-bZJVNmkqVkuCmmXx-3" value="miniui" style="rounded=1;whiteSpace=wrap;html=1;" vertex="1" parent="1">
          <mxGeometry x="294" y="360" width="120" height="60" as="geometry" />
        </mxCell>
        <mxCell id="QyY-bZJVNmkqVkuCmmXx-7" value="" style="shape=curlyBracket;whiteSpace=wrap;html=1;rounded=1;flipH=1;labelPosition=right;verticalLabelPosition=middle;align=left;verticalAlign=middle;size=0.4;rotation=-90;" vertex="1" parent="1">
          <mxGeometry x="331.5" y="297.5" width="50" height="285" as="geometry" />
        </mxCell>
        <mxCell id="QyY-bZJVNmkqVkuCmmXx-8" value="libdrm" style="rounded=1;whiteSpace=wrap;html=1;" vertex="1" parent="1">
          <mxGeometry x="180" y="470" width="120" height="60" as="geometry" />
        </mxCell>
        <mxCell id="QyY-bZJVNmkqVkuCmmXx-9" value="libsync" style="rounded=1;whiteSpace=wrap;html=1;" vertex="1" parent="1">
          <mxGeometry x="320" y="470" width="120" height="60" as="geometry" />
        </mxCell>
        <mxCell id="QyY-bZJVNmkqVkuCmmXx-10" value="libion" style="rounded=1;whiteSpace=wrap;html=1;" vertex="1" parent="1">
          <mxGeometry x="450" y="470" width="120" height="60" as="geometry" />
        </mxCell>
      </root>
    </mxGraphModel>
  </diagram>
</mxfile>
